<svg xmlns="http://www.w3.org/2000/svg" viewBox="0 0 400 200" width="400" height="200">
  <defs>
    <linearGradient id="bg6" x1="0%" y1="0%" x2="100%" y2="100%">
      <stop offset="0%" style="stop-color:#0f0f23"/>
      <stop offset="100%" style="stop-color:#1a1a2e"/>
    </linearGradient>
    <linearGradient id="orange" x1="0%" y1="0%" x2="100%" y2="100%">
      <stop offset="0%" style="stop-color:#F97316"/>
      <stop offset="100%" style="stop-color:#EA580C"/>
    </linearGradient>
    <filter id="glow6"><feGaussianBlur stdDeviation="4" result="blur"/><feMerge><feMergeNode in="blur"/><feMergeNode in="SourceGraphic"/></feMerge></filter>
    <filter id="shadow6"><feDropShadow dx="0" dy="4" stdDeviation="8" flood-color="#000" flood-opacity="0.5"/></filter>
  </defs>
  <rect width="400" height="200" fill="url(#bg6)" rx="16" filter="url(#shadow6)"/>
  <rect width="398" height="198" x="1" y="1" fill="none" stroke="url(#orange)" stroke-width="1.5" rx="15" opacity="0.8"/>
  <circle cx="50" cy="40" r="80" fill="#F97316" opacity="0.03"/>
  <circle cx="380" cy="180" r="60" fill="#EA580C" opacity="0.05"/>
  <g transform="translate(55,70)">
    <circle cx="25" cy="20" r="22" fill="none" stroke="url(#orange)" stroke-width="2" filter="url(#glow6)"/>
    <path d="M15,20 L25,10 L35,20 L25,30 Z" fill="#F97316" opacity="0.6"/>
    <circle cx="25" cy="20" r="6" fill="#F97316"/>
    <line x1="25" y1="0" x2="25" y2="8" stroke="#F97316" stroke-width="1.5" opacity="0.5"/>
    <line x1="25" y1="32" x2="25" y2="40" stroke="#F97316" stroke-width="1.5" opacity="0.5"/>
    <line x1="3" y1="20" x2="11" y2="20" stroke="#F97316" stroke-width="1.5" opacity="0.5"/>
    <line x1="39" y1="20" x2="47" y2="20" stroke="#F97316" stroke-width="1.5" opacity="0.5"/>
  </g>
  <text x="140" y="75" fill="#ffffff" font-family="Arial, sans-serif" font-size="26" font-weight="bold">Prahara</text>
  <text x="140" y="100" fill="#F97316" font-family="Arial, sans-serif" font-size="12" font-weight="600">OBSERVABILITY PLATFORM</text>
  <text x="140" y="125" fill="#a0a0a0" font-family="Arial, sans-serif" font-size="12">Monitoring, Logging and Tracing</text>
  <rect x="140" y="145" width="55" height="22" rx="4" fill="#F46800" opacity="0.2"/>
  <text x="167" y="160" text-anchor="middle" fill="#F46800" font-family="Arial, sans-serif" font-size="10" font-weight="600">GRAFANA</text>
  <rect x="203" y="145" width="50" height="22" rx="4" fill="#3776AB" opacity="0.2"/>
  <text x="228" y="160" text-anchor="middle" fill="#3776AB" font-family="Arial, sans-serif" font-size="10" font-weight="600">PYTHON</text>
  <rect x="261" y="145" width="55" height="22" rx="4" fill="#F97316" opacity="0.2"/>
  <text x="288" y="160" text-anchor="middle" fill="#F97316" font-family="Arial, sans-serif" font-size="10" font-weight="600">PRIVATE</text>
</svg>
