<svg xmlns="http://www.w3.org/2000/svg" viewBox="0 0 400 200" width="400" height="200">
  <defs>
    <linearGradient id="bg5" x1="0%" y1="0%" x2="100%" y2="100%">
      <stop offset="0%" style="stop-color:#0f0f23"/>
      <stop offset="100%" style="stop-color:#1a1a2e"/>
    </linearGradient>
    <linearGradient id="pink" x1="0%" y1="0%" x2="100%" y2="100%">
      <stop offset="0%" style="stop-color:#EC4899"/>
      <stop offset="100%" style="stop-color:#DB2777"/>
    </linearGradient>
    <filter id="glow5"><feGaussianBlur stdDeviation="4" result="blur"/><feMerge><feMergeNode in="blur"/><feMergeNode in="SourceGraphic"/></feMerge></filter>
    <filter id="shadow5"><feDropShadow dx="0" dy="4" stdDeviation="8" flood-color="#000" flood-opacity="0.5"/></filter>
  </defs>
  <rect width="400" height="200" fill="url(#bg5)" rx="16" filter="url(#shadow5)"/>
  <rect width="398" height="198" x="1" y="1" fill="none" stroke="url(#pink)" stroke-width="1.5" rx="15" opacity="0.8"/>
  <circle cx="50" cy="40" r="80" fill="#EC4899" opacity="0.03"/>
  <circle cx="380" cy="180" r="60" fill="#DB2777" opacity="0.05"/>
  <g transform="translate(55,70)">
    <rect x="0" y="0" width="50" height="40" rx="4" fill="none" stroke="url(#pink)" stroke-width="2" filter="url(#glow5)"/>
    <text x="8" y="18" fill="#EC4899" font-family="monospace" font-size="10" opacity="0.9">&lt;/&gt;</text>
    <line x1="8" y1="28" x2="42" y2="28" stroke="#EC4899" stroke-width="1.5" opacity="0.5"/>
    <line x1="8" y1="34" x2="30" y2="34" stroke="#EC4899" stroke-width="1.5" opacity="0.3"/>
  </g>
  <text x="140" y="75" fill="#ffffff" font-family="Arial, sans-serif" font-size="26" font-weight="bold">Rachana Code</text>
  <text x="140" y="100" fill="#EC4899" font-family="Arial, sans-serif" font-size="12" font-weight="600">CODE EDITOR</text>
  <text x="140" y="125" fill="#a0a0a0" font-family="Arial, sans-serif" font-size="12">Modern Editor Built for Developers</text>
  <rect x="140" y="145" width="55" height="22" rx="4" fill="#3178C6" opacity="0.2"/>
  <text x="167" y="160" text-anchor="middle" fill="#3178C6" font-family="Arial, sans-serif" font-size="10" font-weight="600">TYPESCRIPT</text>
  <rect x="203" y="145" width="50" height="22" rx="4" fill="#47848F" opacity="0.2"/>
  <text x="228" y="160" text-anchor="middle" fill="#47848F" font-family="Arial, sans-serif" font-size="10" font-weight="600">ELECTRON</text>
  <rect x="261" y="145" width="55" height="22" rx="4" fill="#EC4899" opacity="0.2"/>
  <text x="288" y="160" text-anchor="middle" fill="#EC4899" font-family="Arial, sans-serif" font-size="10" font-weight="600">PUBLIC</text>
</svg>
